# xmcd CD database file
#
# Track frame offsets:
#	150
#	19235
#	40576
#	58998
#	75159
#	90515
#	105521
#	126018
#	139855
#	158481
#	174845
#	193337
#
# Disc length: 2747 seconds
#
# Revision: 0
# Processed by: cddbd v1.5.1PL0 Copyright (c) Steve Scherf et al.
# Submitted via: CDex 1.50
#
DISCID=8c0ab90c
DTITLE=Paul Larson - Outside The Box
DYEAR=2005
DGENRE=Country
TTITLE0=Paul Larson =Captian's Son
TTITLE1=Paul Larson =California Evening 
TTITLE2=Paul Larson =Through The Window
TTITLE3=Paul Larson =When It Comes To Trains
TTITLE4=Paul Larson =Perfect Day
TTITLE5=Paul Larson =Good Time Girl
TTITLE6=Paul Larson =Walk With Me
TTITLE7=Paul Larson =Little Red Hawk
TTITLE8=Paul Larson =Look Around You
TTITLE9=Paul Larson =The Wasatch
TTITLE10=Paul Larson =Going Home
TTITLE11=Paul Larson =Outside The Box
EXTD=YEAR: 2005
EXTT0=
EXTT1=
EXTT2=
EXTT3=
EXTT4=
EXTT5=
EXTT6=
EXTT7=
EXTT8=
EXTT9=
EXTT10=
EXTT11=
PLAYORDER=
